<?xml version="1.0" encoding="iso-8859-1"?>
<!-- Uploaded to: SVG Repo, www.svgrepo.com, Generator: SVG Repo Mixer Tools -->
<svg fill="#53699e" height="800px" width="800px" version="1.1" id="Layer_1" xmlns="http://www.w3.org/2000/svg" xmlns:xlink="http://www.w3.org/1999/xlink"
	 viewBox="0 0 472.615 472.615" xml:space="preserve">
<g>
	<g>
		<path d="M0,49.231v157.538h472.615V49.231H0z M127.644,139.133l-9.846,17.058l-19.337-11.165v22.328H78.769v-22.328
			l-19.337,11.165l-9.846-17.058l19.335-11.163l-19.335-11.164l9.846-17.058l19.337,11.166V88.586h19.692v22.328l19.337-11.166
			l9.846,17.058L108.31,127.97L127.644,139.133z M226.106,139.133l-9.846,17.058l-19.337-11.165v22.328h-19.692v-22.328
			l-19.337,11.165l-9.846-17.058l19.335-11.163l-19.335-11.164l9.846-17.058l19.337,11.166V88.586h19.692v22.328l19.337-11.166
			l9.846,17.058l-19.335,11.164L226.106,139.133z M324.568,139.133l-9.846,17.058l-19.337-11.165v22.328h-19.692v-22.328
			l-19.337,11.165l-9.846-17.058l19.335-11.163l-19.335-11.164l9.846-17.058l19.337,11.166V88.586h19.692v22.328l19.337-11.166
			l9.846,17.058l-19.335,11.164L324.568,139.133z M423.029,139.133l-9.846,17.058l-19.337-11.165v22.328h-19.692v-22.328
			l-19.337,11.165l-9.846-17.058l19.335-11.163l-19.335-11.164l9.846-17.058l19.337,11.166V88.586h19.692v22.328l19.337-11.166
			l9.846,17.058l-19.335,11.164L423.029,139.133z"/>
	</g>
</g>
<g>
	<g>
		<path d="M384,315.051H204.486c-8.995-39.434-44.268-68.897-86.332-68.897c-48.837,0-88.615,39.679-88.615,88.615
			c0,48.837,39.778,88.615,88.615,88.615c38.48,0,71.243-24.74,83.448-59.103h74.09l24.615,24.615l34.462-34.462l19.692,19.692H384
			l29.538-29.538L384,315.051z M88.615,354.436c-10.876,0-19.692-8.817-19.692-19.692c0-10.876,8.816-19.692,19.692-19.692
			c10.876,0,19.692,8.816,19.692,19.692C108.308,345.619,99.491,354.436,88.615,354.436z"/>
	</g>
</g>
</svg>
